<svg width="463" height="284" viewBox="0 0 463 284" fill="none" xmlns="http://www.w3.org/2000/svg">
<path fill-rule="evenodd" clip-rule="evenodd" d="M47.328 268.888C62.5897 276.811 80.9376 280.774 102.373 280.774C121.921 280.774 138.726 277.492 152.787 270.929C166.934 264.366 177.866 255.081 185.582 243.075C193.299 230.989 197.286 216.822 197.543 200.574H131.695C131.181 206.977 129.638 212.42 127.065 216.902C124.579 221.304 121.321 224.666 117.291 226.987C113.261 229.228 108.631 230.349 103.401 230.349C97.2284 230.349 91.8264 228.708 87.1965 225.426C82.5666 222.065 78.966 217.062 76.3939 210.419C73.8211 203.695 72.5354 195.291 72.5354 185.207C72.5354 176.778 73.4335 169.551 75.2305 163.526L55.835 152.427V130.113H38.4512V107.842C27.4496 115.191 18.7051 124.571 12.2178 135.982C4.07259 150.229 0 166.797 0 185.687C0 204.576 4.07259 221.184 12.2178 235.511C20.363 249.758 32.0664 260.884 47.328 268.888ZM40.5111 106.506C42.6986 105.13 44.9708 103.83 47.328 102.606C62.5897 94.6012 80.9376 90.5996 102.373 90.5996C121.75 90.5996 138.511 93.8811 152.659 100.445C166.891 106.928 177.909 116.132 185.711 128.058C193.514 139.904 197.457 153.831 197.543 169.838H131.695C130.752 160.154 127.751 152.79 122.693 147.748C117.719 142.625 111.29 140.064 103.401 140.064C97.2284 140.064 91.8264 141.745 87.1965 145.107C82.5666 148.388 78.966 153.391 76.3939 160.114C76.2969 160.364 76.2017 160.617 76.1083 160.873L65.9755 147.73V123.067H47.1431L40.5111 106.506Z" fill="#6366F1"/>
<path fill-rule="evenodd" clip-rule="evenodd" d="M357.025 272.816C345.236 279.97 332.372 283.671 318.433 283.92C304.565 284.125 290.56 280.166 276.416 272.043C262.343 263.877 249.092 250.868 236.662 233.018C223.671 214.362 216.201 197.321 214.252 181.892C212.376 166.42 214.468 152.979 220.532 141.566C226.667 130.11 235.198 121.067 246.124 114.437C254.319 109.463 262.442 106.444 270.493 105.376C278.498 104.241 286.127 104.624 293.38 106.523C300.567 108.349 307.055 111.217 312.844 115.126L312.551 115.399L317.125 139.625C316.542 139.542 315.958 139.476 315.375 139.429C309.437 138.832 303.736 140.191 298.273 143.506C292.809 146.821 289.165 151.133 287.339 156.442C285.538 161.639 285.512 167.622 287.259 174.39C289.032 181.047 292.581 188.201 297.908 195.851C303.236 203.501 308.822 209.467 314.666 213.748C320.536 217.918 326.404 220.324 332.27 220.965C338.161 221.495 343.838 220.102 349.302 216.786C354.765 213.471 358.41 209.159 360.235 203.851C362.086 198.432 362.161 192.372 360.461 185.671C358.786 178.86 355.331 171.696 350.097 164.18C344.77 156.53 339.135 150.641 333.194 146.514C328.611 143.232 324.015 141.075 319.404 140.044L318.49 119.795L353.895 89.339L330.673 72.4347L351.669 47.4844L425.991 154.215L416.429 169.505L438.134 181.333L418.23 213.162L425.688 228.284L403.068 242.01L385.404 216.645L384.109 217.43C385.454 224.06 385.419 230.764 384.003 237.542C382.612 244.209 379.703 250.605 375.275 256.729C370.872 262.742 364.789 268.104 357.025 272.816ZM350.917 46.4041L322.696 72.7491L340.467 89.339L313.603 114.417L259.082 36.1203L318.603 0L350.917 46.4041ZM433.567 165.368L433.614 165.163L433.873 165.535L433.567 165.368ZM435.082 213.361L450.267 189.077L462.157 206.152L435.408 222.385L435.082 213.361Z" fill="#6366F1"/>
</svg>
